<svg id="Layer_1" data-name="Layer 1" xmlns="http://www.w3.org/2000/svg" width="32" height="32" viewBox="0 0 32 32">
  <defs>
    <style>.cls-1{fill:#f0892e;}</style>
  </defs>
  <title>vRO</title>
  <path class="cls-1" d="M14,30A12,12,0,1,1,26,18,12,12,0,0,1,14,30ZM14,8A10,10,0,1,0,24,18,10,10,0,0,0,14,8Z"/>
  <path class="cls-1" d="M14,25a7,7,0,1,1,7-7A7,7,0,0,1,14,25Zm0-12a5,5,0,1,0,5,5A5,5,0,0,0,14,13Z"/>
  <path class="cls-1" d="M26.5,9A3.5,3.5,0,1,1,30,5.5,3.5,3.5,0,0,1,26.5,9Zm0-5A1.5,1.5,0,1,0,28,5.5,1.5,1.5,0,0,0,26.5,4Z"/>
</svg>
